<svg width="277" height="240" viewBox="0 0 277 240" fill="none" xmlns="http://www.w3.org/2000/svg">
<g id="Layer_1" clip-path="url(#clip0_2_1139)">
<path id="Vector" d="M67.3161 161.359C66.8328 159.46 65.9987 157.837 64.803 156.487C62.8357 154.271 61.7705 153.038 61.6072 152.786C58.3568 147.566 56.2982 141.902 55.4344 135.784C55.2345 134.377 55.163 133.051 55.2199 131.805C55.2791 130.422 55.2651 129.053 55.1887 127.703C54.9288 123.377 56.4792 119.27 57.693 115.084C57.9784 114.062 57.7151 113.194 56.8923 112.476C55.7605 111.49 54.6289 110.805 53.5033 110.4L54.7333 106.369C54.8481 105.983 54.7143 105.751 54.3347 105.661C49.8676 104.637 45.9412 103.145 42.5341 101.18C40.6857 99.1233 38.911 97.179 37.1964 95.3548C36.477 94.5953 35.7002 93.8782 34.8765 93.2064C30.4879 89.6942 28.3031 81.6603 28.1722 76.2934C28.0669 72.2518 29.1832 67.6122 31.5024 62.3582C32.552 59.9908 34.0291 58.2238 35.2415 55.981C36.0821 54.4366 37.1774 53.0184 38.5352 51.7398C41.6908 48.7455 44.5275 46.6835 47.0422 45.5646C50.2166 44.1367 54.0627 42.7847 58.5699 41.5057C61.0775 40.8012 63.2965 41.604 65.8022 40.6909C66.1477 40.5637 66.4938 40.5639 66.8461 40.6699C69.3917 41.5023 76.4492 43.5784 78.3639 41.2115C82.0444 36.6461 86.4168 32.5552 91.4567 28.9438C93.9152 27.1737 96.7427 25.7917 99.9255 24.8055C101.7 24.2518 102.28 22.7764 104.308 22.3134C119.908 18.6863 134.831 20.684 147.635 31.0197C149.178 32.2776 150.711 33.5326 152.216 34.8033C153.729 36.0878 154.98 37.5333 155.947 39.134C156.78 40.5023 157.649 41.8223 158.551 43.105C159.955 45.1003 160.851 47.3529 162.036 49.4747C162.885 50.9977 163.51 52.6687 163.922 54.4908C164.447 56.7942 164.862 59.0336 165.156 61.206C165.275 62.14 166.197 62.7456 167.105 62.5029C169.608 61.8553 171.837 61.0298 174.445 60.7686C176.684 60.5475 178.844 60.2818 180.928 59.9498C183.129 59.6142 185.278 59.473 187.397 59.5317C194.435 59.7407 201.353 60.2294 208.171 61.0038C208.597 61.0487 209.065 61.0698 209.565 61.0535C210.017 61.0473 210.459 61.1195 210.875 61.2888C213.095 62.1729 215.353 62.9166 217.638 63.5173C225.347 65.5714 231.733 69.1215 236.792 74.1781C245.865 80.484 250.814 88.6223 251.656 98.6096C251.767 99.8768 251.915 101.131 252.11 102.386C252.173 102.796 252.342 102.853 252.62 102.546C253.067 102.041 253.311 101.389 253.349 100.601C254.062 104.228 254.118 107.978 253.518 111.854C253.43 112.397 253.651 112.734 254.176 112.886C255.755 113.321 257.427 113.885 259.188 114.588C259.344 114.653 259.404 114.773 259.347 114.943C259.287 115.123 259.167 115.184 258.995 115.137C257.652 114.766 256.382 114.426 255.209 114.111C253.828 113.753 253.03 114.279 252.813 115.69C251.576 123.536 248.801 130.449 244.49 136.418C243.668 137.551 243.275 138.845 243.314 140.29C243.316 140.672 243.448 140.997 243.708 141.275C246.088 143.89 247.384 145.637 247.588 146.513C247.948 148.055 248.498 149.532 249.235 150.956C249.411 151.292 249.491 151.638 249.482 152.017C249.434 154.78 249.458 157.446 249.567 160.008C249.613 161.258 249.443 162.496 249.05 163.745C247.952 167.198 247.496 172.43 244.568 174.919C242.488 176.698 239.83 178.565 236.609 180.513C235.123 181.41 233.27 181.908 231.06 182.021C230.684 182.048 230.36 182.181 230.074 182.428C229.742 182.721 229.376 182.796 228.98 182.678C225.825 181.752 223.316 182.421 221.451 184.686C221.167 185.015 220.813 185.174 220.384 185.14C220.111 185.125 219.971 185.261 219.971 185.562C219.961 185.987 219.771 186.306 219.451 186.556L217.313 188.076C216.941 188.347 216.686 188.695 216.535 189.128C215.343 192.545 213.482 195.528 210.959 198.055C209.853 199.17 209.679 200.766 208.506 202.001C207.08 203.493 205.653 204.984 204.216 206.473C196.698 214.209 186.393 218.572 175.167 220.341C174.345 220.479 174.006 221.487 174.602 222.063C174.658 222.112 174.808 222.153 175.07 222.165C161.228 222.55 149.472 218.417 139.807 209.756C125.173 196.651 118.108 180.266 118.615 160.589C118.632 159.923 117.891 159.505 117.341 159.878C114.488 161.785 111.429 163.429 108.164 164.809C93.8625 170.866 80.2467 169.716 67.3161 161.359Z" fill="#D5F9FF"/>
</g>
<defs>
<clipPath id="clip0_2_1139">
<rect width="237" height="184" fill="white" transform="translate(228.924 239.07) rotate(-165)"/>
</clipPath>
</defs>
</svg>
