<svg width="237" height="184" viewBox="0 0 237 184" fill="none" xmlns="http://www.w3.org/2000/svg">
<g id="Layer_1" clip-path="url(#clip0_2_1137)">
<path id="Vector" d="M176.215 33.2362C177.173 34.9455 178.399 36.2973 179.903 37.2916C182.377 38.9227 183.725 39.8387 183.948 40.0398C188.439 44.2404 191.893 49.1784 194.311 54.8649C194.868 56.172 195.281 57.4344 195.548 58.6521C195.849 60.0039 196.217 61.3222 196.64 62.6069C198.011 66.7182 197.576 71.0864 197.487 75.4434C197.476 76.5047 197.955 77.2756 198.936 77.7559C200.284 78.4151 201.554 78.7837 202.746 78.8843L202.602 83.0961C202.59 83.4983 202.78 83.6882 203.17 83.677C207.75 83.5094 211.928 83.934 215.728 84.9506C218.046 86.4588 220.263 87.8776 222.391 89.1959C223.283 89.7433 224.219 90.2349 225.188 90.6706C230.336 92.9273 234.526 100.122 236.042 105.272C237.189 109.149 237.312 113.919 236.432 119.594C236.03 122.153 235.061 124.242 234.47 126.722C234.058 128.431 233.367 130.085 232.387 131.671C230.114 135.38 227.907 138.106 225.768 139.838C223.071 142.039 219.706 144.34 215.683 146.742C213.444 148.071 211.092 147.87 208.908 149.401C208.608 149.613 208.273 149.702 207.906 149.691C205.231 149.546 197.877 149.367 196.64 152.149C194.267 157.512 191.102 162.595 187.169 167.388C185.252 169.734 182.878 171.8 180.059 173.577C178.488 174.571 178.31 176.146 176.471 177.118C162.342 184.659 147.41 186.592 132.367 179.922C130.551 179.107 128.746 178.291 126.963 177.453C125.169 176.604 123.587 175.532 122.238 174.236C121.079 173.13 119.898 172.08 118.695 171.074C116.823 169.51 115.374 167.566 113.681 165.823C112.466 164.572 111.43 163.12 110.561 161.466C109.457 159.377 108.477 157.322 107.63 155.3C107.273 154.428 106.226 154.082 105.412 154.551C103.162 155.825 101.223 157.199 98.7713 158.126C96.6652 158.919 94.6484 159.735 92.7206 160.595C90.6814 161.489 88.6423 162.181 86.5808 162.673C79.7279 164.293 72.9195 165.611 66.1335 166.628C65.71 166.695 65.2532 166.795 64.774 166.941C64.3394 167.064 63.8937 167.108 63.448 167.052C61.0746 166.773 58.7011 166.639 56.3388 166.65C48.3604 166.661 41.2735 164.885 35.078 161.31C24.6816 157.567 17.7952 150.987 14.3966 141.558C13.962 140.363 13.494 139.19 12.9815 138.028C12.8143 137.648 12.636 137.637 12.4466 138.006C12.1457 138.609 12.0789 139.302 12.246 140.072C10.6192 136.754 9.594 133.146 9.17056 129.247C9.11485 128.699 8.81399 128.431 8.26798 128.42C6.62997 128.409 4.86937 128.297 2.98621 128.074C2.81907 128.052 2.72992 127.951 2.74107 127.772C2.75221 127.582 2.85249 127.493 3.03078 127.493C4.42366 127.504 5.73853 127.504 6.95311 127.504C8.37941 127.493 9.01456 126.778 8.85856 125.359C8.02284 117.461 8.91428 110.065 11.5329 103.183C12.0343 101.876 12.0789 100.524 11.6666 99.1388C11.5663 98.7701 11.3546 98.4909 11.0314 98.2898C8.05627 96.3794 6.35139 95.0276 5.92796 94.2344C5.18138 92.8379 4.26765 91.5531 3.18678 90.3689C2.9305 90.0896 2.76335 89.7768 2.67421 89.4081C2.00563 86.7269 1.29248 84.1574 0.523612 81.7108C0.155894 80.5154 -0.000107587 79.2753 0.0556073 77.9682C0.222752 74.3485 -0.690972 69.176 1.49305 66.0143C3.04193 63.7576 5.12566 61.2663 7.73312 58.5516C8.93656 57.3003 10.5969 56.3395 12.7029 55.6581C13.0595 55.5352 13.338 55.3229 13.5498 55.0101C13.7949 54.6414 14.1292 54.4738 14.5415 54.485C17.8287 54.5632 20.0795 53.2673 21.2941 50.5972C21.4836 50.2062 21.7844 49.9604 22.2078 49.8822C22.4753 49.8264 22.5756 49.6588 22.4976 49.3683C22.3973 48.955 22.4976 48.5975 22.7427 48.2735L24.4142 46.2514C24.7039 45.8939 24.8599 45.4917 24.8933 45.0336C25.1607 41.4251 26.1859 38.0624 27.9688 34.9678C28.7488 33.6049 28.5036 32.0185 29.3171 30.5214C30.3088 28.7116 31.3005 26.9018 32.3034 25.0919C37.5629 15.6741 46.3881 8.79224 56.7734 4.17827C57.5311 3.83194 57.5979 2.77062 56.8737 2.36843C56.8068 2.33492 56.6508 2.33492 56.3945 2.39078C69.6658 -1.56405 82.0902 -0.614445 93.6678 5.25077C111.196 14.1212 122.261 28.1195 126.863 47.2568C127.019 47.9048 127.843 48.1171 128.278 47.6143C130.54 45.0336 133.069 42.654 135.866 40.4755C148.112 30.9236 161.562 28.5105 176.215 33.2362Z" fill="#D4F8FF"/>
</g>
<defs>
<clipPath id="clip0_2_1137">
<rect width="237" height="184" fill="white"/>
</clipPath>
</defs>
</svg>
