<svg width="231" height="177" viewBox="0 0 231 177" fill="none" xmlns="http://www.w3.org/2000/svg">
<g id="Layer_1" clip-path="url(#clip0_2_1145)">
<path id="Vector" d="M187.331 27.6885C189.341 33.5557 190.518 39.4467 190.863 45.3376C190.946 46.8547 191.053 48.0163 191.172 48.8342C191.231 49.2253 191.445 49.4979 191.814 49.6283L193.527 50.2447C194.276 51.0388 194.823 51.7619 195.18 52.3901C196.131 54.1325 194.823 56.1949 195.406 58.3165C195.501 58.6721 195.774 58.9566 196.131 59.0396C208.702 62.1806 218.751 69.0909 226.255 79.7585C227.218 81.1453 227.373 82.7336 227.646 84.3219C227.73 84.7723 228.277 84.9501 228.61 84.6301C228.883 84.3574 228.954 83.8004 228.847 82.9588C230.524 88.7075 231.226 93.745 230.929 98.0595C230.334 106.854 227.159 115.223 221.403 123.152C216.42 130.039 210.022 135.574 202.232 139.734C196.797 142.638 191.279 144.535 185.701 145.424C184.869 145.554 184.227 146.206 184.096 147.036C182.8 155.297 175.07 164.72 168.16 169.201C159.288 174.949 149.453 176.526 138.643 173.93C134.742 170.41 131.876 168.205 130.056 167.304C128.356 166.475 127.535 167.103 127.583 169.177L120.887 164.187C120.578 163.962 120.281 163.962 119.983 164.199C111.361 171.228 101.728 175.412 91.0609 176.775C88.5991 177.095 86.2206 177.071 83.9492 176.704C81.3447 175.435 78.883 174.25 76.5401 173.124C73.6384 171.737 71.2837 170.339 69.4641 168.928C59.2128 161.01 52.6957 150.58 49.9009 137.636C49.7582 136.996 49.2112 136.522 48.5571 136.475L36.07 135.633C35.8559 135.396 35.7132 134.827 35.6537 133.915C35.5467 132.433 34.7618 131.651 33.2752 131.544L21.5849 130.762C23.6661 130.062 23.4639 129.517 21.0021 129.126C20.5027 129.043 20.0626 128.877 19.6821 128.628C14.164 124.954 9.60913 120.367 6.0176 114.867C4.55482 112.627 3.65099 109.652 2.17632 107.186C1.37952 105.871 0.95139 104.424 0.880035 102.86C0.773002 100.454 0.0713447 98.095 0.0118822 95.6889C-0.28543 82.698 5.56568 71.2955 15.3532 62.9629C18.1479 60.5804 21.2043 58.6958 24.5104 57.3209C28.6728 55.5904 32.0622 54.2865 34.6666 53.3976C36.0581 52.9235 37.616 52.5679 39.3404 52.3308C40.1372 52.2123 40.8151 51.6789 41.1124 50.9322C46.6662 36.6968 56.3467 26.7759 70.1657 21.1694C76.5282 18.5973 84.2108 17.2461 93.2134 17.1157C95.1162 17.092 97.2093 16.286 98.6721 15.0889C104.131 10.6084 108.198 7.81115 110.886 6.68512C112.979 5.808 115.084 4.82421 117.212 3.72188C119.627 2.47732 121.827 1.69503 123.825 1.375C134.147 -0.284411 142.769 -0.687411 153.342 1.51724C156.636 2.20471 159.752 4.08932 162.796 5.52353C170.943 9.39944 177.65 14.9466 182.895 22.1769C183.37 22.8288 183.882 23.8719 184.429 25.3061C185.19 27.2855 186.153 28.0797 187.331 27.6885ZM144.613 160.406C149.061 161.485 153.318 160.536 157.397 157.585C159.003 156.411 160.109 155.202 160.727 153.946C161.453 152.488 161.12 152.192 159.74 153.057C152.961 157.289 145.862 158.521 138.441 156.755C137.382 156.506 137.251 156.755 138.036 157.502C139.701 159.078 142.425 159.884 144.613 160.406Z" fill="#D4F8FF"/>
</g>
<defs>
<clipPath id="clip0_2_1145">
<rect width="231" height="177" fill="white"/>
</clipPath>
</defs>
</svg>
