<svg width="241" height="225" viewBox="0 0 241 225" fill="none" xmlns="http://www.w3.org/2000/svg">
<g id="Layer_1" clip-path="url(#clip0_2_1147)">
<path id="Vector" d="M146.128 38.3612C150.055 41.7223 153.395 45.4528 156.137 49.5356C156.839 50.5895 157.408 51.3781 157.84 51.9148C158.048 52.1704 158.317 52.2755 158.637 52.2131L160.127 51.9306C161.001 52.1836 161.699 52.471 162.221 52.771C163.642 53.6191 163.577 55.6533 164.893 56.9297C165.112 57.1447 165.429 57.2331 165.72 57.1417C176.069 54.0756 186.206 54.7824 196.108 59.2639C197.386 59.8516 198.17 60.9264 199.039 61.9508C199.289 62.2389 199.757 62.1349 199.86 61.7642C199.941 61.4528 199.756 61.0226 199.323 60.4638C202.961 63.8808 205.598 67.2 207.212 70.423C210.51 76.9882 211.776 84.3395 211.005 92.4683C210.346 99.5211 208.1 106.203 204.274 112.487C201.605 116.872 198.449 120.569 194.824 123.568C194.282 124.014 194.097 124.754 194.354 125.405C196.923 131.884 195.368 141.921 192.309 148.062C188.378 155.944 181.99 161.239 173.134 163.951C168.845 163.075 165.855 162.706 164.168 162.829C162.596 162.954 162.274 163.752 163.186 165.221L156.269 164.473C155.952 164.442 155.739 164.568 155.626 164.864C152.417 173.559 147.278 180.64 140.201 186.134C138.571 187.406 136.854 188.396 135.069 189.094C132.663 189.286 130.395 189.477 128.237 189.66C125.568 189.893 123.286 189.886 121.383 189.643C110.675 188.299 101.582 183.57 94.0947 175.461C93.7213 175.062 93.128 174.953 92.6386 175.196L83.3233 179.878C83.0693 179.798 82.7259 179.45 82.2967 178.82C81.5924 177.802 80.698 177.572 79.5862 178.125L70.8676 182.512C72.0646 181.129 71.6886 180.823 69.7568 181.584C69.3633 181.736 68.9773 181.803 68.5988 181.786C63.0836 181.484 57.873 180.119 52.9669 177.691C50.9686 176.702 49.0601 174.949 46.9579 173.804C45.8291 173.196 44.9094 172.339 44.1956 171.247C43.0997 169.565 41.5973 168.168 40.5356 166.466C34.8203 157.266 34.1889 146.604 37.6819 136.48C38.6779 133.586 40.0725 130.94 41.8622 128.553C44.1156 125.549 45.9951 123.179 47.4872 121.438C48.2846 120.509 49.2518 119.594 50.3886 118.694C50.91 118.271 51.1705 117.602 51.0675 116.94C49.023 104.37 51.7665 93.1503 59.3066 83.2762C62.782 78.7366 67.7216 74.5147 74.1253 70.6104C75.4805 69.7879 76.6408 68.3233 77.1832 66.8448C79.202 61.3179 80.9353 57.5882 82.3867 55.6422C83.5169 54.1265 84.6105 52.5293 85.6709 50.8369C86.8758 48.9216 88.123 47.4287 89.4209 46.3533C96.1241 40.7925 102.139 36.8536 110.658 33.961C113.313 33.0601 116.347 33.0941 119.138 32.8349C126.625 32.169 133.786 33.312 140.611 36.2823C141.229 36.5489 142.037 37.0812 143.037 37.8792C144.422 38.978 145.449 39.1403 146.128 38.3612ZM171.69 151.716C175.338 150.607 177.991 148.124 179.667 144.279C180.322 142.757 180.604 141.421 180.515 140.257C180.418 138.904 180.054 138.832 179.43 140.037C176.359 145.944 171.787 149.834 165.715 151.708C164.851 151.977 164.862 152.211 165.741 152.415C167.604 152.842 169.899 152.268 171.69 151.716Z" fill="#D4F8FF"/>
</g>
<defs>
<clipPath id="clip0_2_1147">
<rect width="192.427" height="147.527" fill="white" transform="translate(0 97.7802) rotate(-30.5402)"/>
</clipPath>
</defs>
</svg>
